<svg width="16" height="19" viewBox="0 0 16 19" fill="none" xmlns="http://www.w3.org/2000/svg">
<path d="M7.21463 15.0595L15.0593 7.21268C15.0946 7.17742 15.1112 7.12971 15.107 7.08201L14.5781 0.830312C14.5636 0.668523 14.4371 0.541995 14.2753 0.527476L8.02358 0.000624358C7.97587 -0.00352408 7.92609 0.0130696 7.8929 0.0483313L0.048205 7.89303C0.0173235 7.92421 0 7.96633 0 8.01022C0 8.05411 0.0173235 8.09623 0.048205 8.12741L6.98024 15.0595C7.04455 15.1258 7.15033 15.1258 7.21463 15.0595ZM8.51309 1.54177L13.1718 1.93587L13.5659 6.59457L7.0964 13.062L2.0436 8.01126L8.51309 1.54177ZM9.76094 5.40459C9.85341 5.49704 9.96317 5.57037 10.084 5.6204C10.2048 5.67042 10.3343 5.69617 10.465 5.69616C10.5958 5.69615 10.7252 5.67039 10.846 5.62034C10.9668 5.57029 11.0766 5.49695 11.169 5.40448C11.2615 5.31202 11.3348 5.20225 11.3848 5.08145C11.4349 4.96065 11.4606 4.83117 11.4606 4.70042C11.4606 4.56967 11.4348 4.4402 11.3848 4.3194C11.3347 4.1986 11.2614 4.08885 11.1689 3.9964C11.0765 3.90395 10.9667 3.83062 10.8459 3.78059C10.7251 3.73056 10.5956 3.70482 10.4649 3.70483C10.3341 3.70484 10.2046 3.7306 10.0838 3.78065C9.96304 3.83069 9.85329 3.90404 9.76084 3.9965C9.66839 4.08897 9.59506 4.19873 9.54503 4.31954C9.495 4.44034 9.46926 4.56981 9.46927 4.70057C9.46928 4.83132 9.49504 4.96079 9.54509 5.08159C9.59513 5.20238 9.66848 5.31214 9.76094 5.40459ZM15.6463 9.86353L14.8249 9.04422C14.7938 9.01334 14.7516 8.99601 14.7077 8.99601C14.6639 8.99601 14.6217 9.01334 14.5906 9.04422L7.08188 16.5384L2.15354 11.6225C2.12235 11.5916 2.08023 11.5743 2.03634 11.5743C1.99245 11.5743 1.95034 11.5916 1.91915 11.6225L1.09776 12.4418C1.06688 12.473 1.04955 12.5151 1.04955 12.559C1.04955 12.6029 1.06688 12.645 1.09776 12.6762L6.14226 17.7124L6.96365 18.5317C7.02795 18.596 7.13374 18.596 7.19804 18.5317L15.6463 10.0979C15.7106 10.0336 15.7106 9.92783 15.6463 9.86353Z" fill="#1A1619"/>
</svg>
